<svg width="472" height="402" viewBox="0 0 472 402" fill="none" xmlns="http://www.w3.org/2000/svg">
<path d="M182.548 188.048L244.04 82.3004C246.931 77.3285 254.558 80.61 252.913 86.1181L243.678 117.041C242.478 121.061 246.612 124.602 250.417 122.814L286.276 105.962C290.304 104.069 294.555 108.118 292.842 112.216L252.173 209.53C250.378 213.827 255.094 217.934 259.124 215.582L281.848 202.32C286.158 199.805 291.017 204.619 288.522 208.931L225.192 318.38C222.309 323.364 214.667 320.085 216.313 314.571L225.538 283.684C226.722 279.718 222.702 276.189 218.906 277.863L184.832 292.888C180.916 294.614 176.833 290.82 178.286 286.805L212.402 192.514C213.891 188.399 209.586 184.576 205.657 186.525L188.926 194.824C184.606 196.967 180.128 192.21 182.548 188.048Z" fill="#8B5CF6"/>
<path d="M467.227 232.869C470.657 232.869 472.496 228.835 470.247 226.246L394.736 139.317C393.141 137.481 390.291 137.481 388.696 139.317L313.185 226.246C310.936 228.835 312.775 232.869 316.205 232.869H339.185C341.606 232.869 343.479 234.982 343.079 237.37C333.361 295.337 280.696 395.932 137.926 372.762C137.887 372.756 137.847 372.753 137.807 372.753V372.753C137.059 372.753 136.792 373.732 137.44 374.105C167.148 391.244 201.641 401.053 238.433 401.053C337.463 401.053 419.844 329.986 437.067 236.216C437.421 234.292 439.087 232.869 441.043 232.869H467.227Z" fill="#8B5CF6"/>
<path d="M238.953 0C263.38 0 286.794 4.32385 308.467 12.2457C308.607 12.2971 308.7 12.4308 308.7 12.5805V12.5805C308.7 12.7775 308.533 12.9372 308.336 12.9374C165.74 13.1045 125.295 111.266 122.323 164.124C122.197 166.362 124.008 168.183 126.25 168.183L155.795 168.183C159.225 168.183 161.064 172.217 158.815 174.807L83.3036 261.736C81.709 263.572 78.8587 263.572 77.264 261.736L1.75317 174.807C-0.496055 172.217 1.34313 168.183 4.77296 168.183H36.3426C38.2987 168.183 39.9648 166.76 40.3182 164.836C57.5413 71.0665 139.923 0 238.953 0Z" fill="#8B5CF6"/>
</svg>
